<?xml version="1.0" encoding="UTF-8" standalone="no"?>
<!DOCTYPE svg PUBLIC "-//W3C//DTD SVG 1.1//EN"
 "http://www.w3.org/Graphics/SVG/1.1/DTD/svg11.dtd">
<!-- Generated by graphviz version 2.43.0 (0)
 -->
<!-- Title: TEAL Pages: 1 -->
<svg width="477pt" height="2889pt"
 viewBox="0.00 0.00 477.00 2889.00" xmlns="http://www.w3.org/2000/svg" xmlns:xlink="http://www.w3.org/1999/xlink">
<g id="graph0" class="graph" transform="scale(1 1) rotate(0) translate(4 2885)">
<title>TEAL</title>
<polygon fill="white" stroke="transparent" points="-4,4 -4,-2885 473,-2885 473,4 -4,4"/>
<!-- prog.teal:1 -->
<g id="node1" class="node">
<title>prog.teal:1</title>
<polygon fill="none" stroke="black" points="228,-2881 157,-2881 157,-2845 228,-2845 228,-2881"/>
<text text-anchor="middle" x="192.5" y="-2860.5" font-family="Monospace" font-size="10.00">1: Source</text>
</g>
<!-- prog.teal:4 -->
<g id="node2" class="node">
<title>prog.teal:4</title>
<polygon fill="none" stroke="black" points="377,-2881 246,-2881 246,-2845 377,-2845 377,-2881"/>
<text text-anchor="middle" x="311.5" y="-2860.5" font-family="Monospace" font-size="10.00">4: txn OnCompletion</text>
</g>
<!-- prog.teal:5 -->
<g id="node3" class="node">
<title>prog.teal:5</title>
<polygon fill="none" stroke="black" points="344,-2808 279,-2808 279,-2772 344,-2772 344,-2808"/>
<text text-anchor="middle" x="311.5" y="-2787.5" font-family="Monospace" font-size="10.00">5: int 0</text>
</g>
<!-- prog.teal:4&#45;&gt;prog.teal:5 -->
<g id="edge1" class="edge">
<title>prog.teal:4&#45;&gt;prog.teal:5</title>
<path fill="none" stroke="black" d="M311.5,-2844.81C311.5,-2836.79 311.5,-2827.05 311.5,-2818.07"/>
<polygon fill="black" stroke="black" points="315,-2818.03 311.5,-2808.03 308,-2818.03 315,-2818.03"/>
</g>
<!-- prog.teal:6 -->
<g id="node4" class="node">
<title>prog.teal:6</title>
<polygon fill="none" stroke="black" points="338.5,-2735 284.5,-2735 284.5,-2699 338.5,-2699 338.5,-2735"/>
<text text-anchor="middle" x="311.5" y="-2714.5" font-family="Monospace" font-size="10.00">6: ==</text>
</g>
<!-- prog.teal:5&#45;&gt;prog.teal:6 -->
<g id="edge2" class="edge">
<title>prog.teal:5&#45;&gt;prog.teal:6</title>
<path fill="none" stroke="black" d="M311.5,-2771.81C311.5,-2763.79 311.5,-2754.05 311.5,-2745.07"/>
<polygon fill="black" stroke="black" points="315,-2745.03 311.5,-2735.03 308,-2745.03 315,-2745.03"/>
</g>
<!-- prog.teal:7 -->
<g id="node5" class="node">
<title>prog.teal:7</title>
<polygon fill="none" stroke="black" points="374,-2662 249,-2662 249,-2626 374,-2626 374,-2662"/>
<text text-anchor="middle" x="311.5" y="-2641.5" font-family="Monospace" font-size="10.00">7: bnz handle_noop</text>
</g>
<!-- prog.teal:6&#45;&gt;prog.teal:7 -->
<g id="edge3" class="edge">
<title>prog.teal:6&#45;&gt;prog.teal:7</title>
<path fill="none" stroke="black" d="M311.5,-2698.81C311.5,-2690.79 311.5,-2681.05 311.5,-2672.07"/>
<polygon fill="black" stroke="black" points="315,-2672.03 311.5,-2662.03 308,-2672.03 315,-2672.03"/>
</g>
<!-- prog.teal:9 -->
<g id="node6" class="node">
<title>prog.teal:9</title>
<polygon fill="none" stroke="black" points="308,-2580 177,-2580 177,-2544 308,-2544 308,-2580"/>
<text text-anchor="middle" x="242.5" y="-2559.5" font-family="Monospace" font-size="10.00">9: txn OnCompletion</text>
</g>
<!-- prog.teal:7&#45;&gt;prog.teal:9 -->
<g id="edge5" class="edge">
<title>prog.teal:7&#45;&gt;prog.teal:9</title>
<path fill="none" stroke="#c0392b" d="M296.53,-2625.64C286.97,-2614.56 274.43,-2600.02 263.83,-2587.74"/>
<polygon fill="#c0392b" stroke="#c0392b" points="266.39,-2585.34 257.21,-2580.05 261.09,-2589.91 266.39,-2585.34"/>
<text text-anchor="middle" x="284.5" y="-2600.8" font-family="Monospace" font-size="9.00" fill="#c0392b">F</text>
</g>
<!-- prog.teal:21 -->
<g id="node15" class="node">
<title>prog.teal:21</title>
<polygon fill="none" stroke="black" points="439,-2580 326,-2580 326,-2544 439,-2544 439,-2580"/>
<text text-anchor="middle" x="382.5" y="-2559.5" font-family="Monospace" font-size="10.00">21: handle_noop:</text>
</g>
<!-- prog.teal:7&#45;&gt;prog.teal:21 -->
<g id="edge4" class="edge">
<title>prog.teal:7&#45;&gt;prog.teal:21</title>
<path fill="none" stroke="#2a8f3c" d="M326.91,-2625.64C336.74,-2614.56 349.65,-2600.02 360.55,-2587.74"/>
<polygon fill="#2a8f3c" stroke="#2a8f3c" points="363.35,-2589.85 367.37,-2580.05 358.11,-2585.21 363.35,-2589.85"/>
<text text-anchor="middle" x="354.5" y="-2600.8" font-family="Monospace" font-size="9.00" fill="#2a8f3c">T</text>
</g>
<!-- prog.teal:10 -->
<g id="node7" class="node">
<title>prog.teal:10</title>
<polygon fill="none" stroke="black" points="278,-2507 207,-2507 207,-2471 278,-2471 278,-2507"/>
<text text-anchor="middle" x="242.5" y="-2486.5" font-family="Monospace" font-size="10.00">10: int 4</text>
</g>
<!-- prog.teal:9&#45;&gt;prog.teal:10 -->
<g id="edge6" class="edge">
<title>prog.teal:9&#45;&gt;prog.teal:10</title>
<path fill="none" stroke="black" d="M242.5,-2543.81C242.5,-2535.79 242.5,-2526.05 242.5,-2517.07"/>
<polygon fill="black" stroke="black" points="246,-2517.03 242.5,-2507.03 239,-2517.03 246,-2517.03"/>
</g>
<!-- prog.teal:11 -->
<g id="node8" class="node">
<title>prog.teal:11</title>
<polygon fill="none" stroke="black" points="269.5,-2434 215.5,-2434 215.5,-2398 269.5,-2398 269.5,-2434"/>
<text text-anchor="middle" x="242.5" y="-2413.5" font-family="Monospace" font-size="10.00">11: ==</text>
</g>
<!-- prog.teal:10&#45;&gt;prog.teal:11 -->
<g id="edge7" class="edge">
<title>prog.teal:10&#45;&gt;prog.teal:11</title>
<path fill="none" stroke="black" d="M242.5,-2470.81C242.5,-2462.79 242.5,-2453.05 242.5,-2444.07"/>
<polygon fill="black" stroke="black" points="246,-2444.03 242.5,-2434.03 239,-2444.03 246,-2444.03"/>
</g>
<!-- prog.teal:12 -->
<g id="node9" class="node">
<title>prog.teal:12</title>
<polygon fill="none" stroke="black" points="314,-2361 171,-2361 171,-2325 314,-2325 314,-2361"/>
<text text-anchor="middle" x="242.5" y="-2340.5" font-family="Monospace" font-size="10.00">12: bnz handle_update</text>
</g>
<!-- prog.teal:11&#45;&gt;prog.teal:12 -->
<g id="edge8" class="edge">
<title>prog.teal:11&#45;&gt;prog.teal:12</title>
<path fill="none" stroke="black" d="M242.5,-2397.81C242.5,-2389.79 242.5,-2380.05 242.5,-2371.07"/>
<polygon fill="black" stroke="black" points="246,-2371.03 242.5,-2361.03 239,-2371.03 246,-2371.03"/>
</g>
<!-- prog.teal:14 -->
<g id="node10" class="node">
<title>prog.teal:14</title>
<polygon fill="none" stroke="black" points="177,-2279 40,-2279 40,-2243 177,-2243 177,-2279"/>
<text text-anchor="middle" x="108.5" y="-2258.5" font-family="Monospace" font-size="10.00">14: txn OnCompletion</text>
</g>
<!-- prog.teal:12&#45;&gt;prog.teal:14 -->
<g id="edge10" class="edge">
<title>prog.teal:12&#45;&gt;prog.teal:14</title>
<path fill="none" stroke="#c0392b" d="M213.75,-2324.84C193.97,-2313.03 167.5,-2297.22 146.05,-2284.42"/>
<polygon fill="#c0392b" stroke="#c0392b" points="147.58,-2281.25 137.2,-2279.13 143.99,-2287.26 147.58,-2281.25"/>
<text text-anchor="middle" x="187.5" y="-2299.8" font-family="Monospace" font-size="9.00" fill="#c0392b">F</text>
</g>
<!-- prog.teal:26 -->
<g id="node19" class="node">
<title>prog.teal:26</title>
<polygon fill="none" stroke="black" points="320,-2279 195,-2279 195,-2243 320,-2243 320,-2279"/>
<text text-anchor="middle" x="257.5" y="-2258.5" font-family="Monospace" font-size="10.00">26: handle_update:</text>
</g>
<!-- prog.teal:12&#45;&gt;prog.teal:26 -->
<g id="edge9" class="edge">
<title>prog.teal:12&#45;&gt;prog.teal:26</title>
<path fill="none" stroke="#2a8f3c" d="M245.75,-2324.64C247.69,-2314.3 250.2,-2300.94 252.4,-2289.22"/>
<polygon fill="#2a8f3c" stroke="#2a8f3c" points="255.9,-2289.52 254.3,-2279.05 249.02,-2288.23 255.9,-2289.52"/>
<text text-anchor="middle" x="254.5" y="-2299.8" font-family="Monospace" font-size="9.00" fill="#2a8f3c">T</text>
</g>
<!-- prog.teal:15 -->
<g id="node11" class="node">
<title>prog.teal:15</title>
<polygon fill="none" stroke="black" points="144,-2206 73,-2206 73,-2170 144,-2170 144,-2206"/>
<text text-anchor="middle" x="108.5" y="-2185.5" font-family="Monospace" font-size="10.00">15: int 5</text>
</g>
<!-- prog.teal:14&#45;&gt;prog.teal:15 -->
<g id="edge11" class="edge">
<title>prog.teal:14&#45;&gt;prog.teal:15</title>
<path fill="none" stroke="black" d="M108.5,-2242.81C108.5,-2234.79 108.5,-2225.05 108.5,-2216.07"/>
<polygon fill="black" stroke="black" points="112,-2216.03 108.5,-2206.03 105,-2216.03 112,-2216.03"/>
</g>
<!-- prog.teal:16 -->
<g id="node12" class="node">
<title>prog.teal:16</title>
<polygon fill="none" stroke="black" points="135.5,-2098 81.5,-2098 81.5,-2062 135.5,-2062 135.5,-2098"/>
<text text-anchor="middle" x="108.5" y="-2077.5" font-family="Monospace" font-size="10.00">16: ==</text>
</g>
<!-- prog.teal:15&#45;&gt;prog.teal:16 -->
<g id="edge12" class="edge">
<title>prog.teal:15&#45;&gt;prog.teal:16</title>
<path fill="none" stroke="black" d="M108.5,-2169.97C108.5,-2153.38 108.5,-2127.88 108.5,-2108.43"/>
<polygon fill="black" stroke="black" points="112,-2108.34 108.5,-2098.34 105,-2108.34 112,-2108.34"/>
</g>
<!-- prog.teal:17 -->
<g id="node13" class="node">
<title>prog.teal:17</title>
<polygon fill="none" stroke="black" points="180,-2025 37,-2025 37,-1989 180,-1989 180,-2025"/>
<text text-anchor="middle" x="108.5" y="-2004.5" font-family="Monospace" font-size="10.00">17: bnz handle_delete</text>
</g>
<!-- prog.teal:16&#45;&gt;prog.teal:17 -->
<g id="edge13" class="edge">
<title>prog.teal:16&#45;&gt;prog.teal:17</title>
<path fill="none" stroke="black" d="M108.5,-2061.81C108.5,-2053.79 108.5,-2044.05 108.5,-2035.07"/>
<polygon fill="black" stroke="black" points="112,-2035.03 108.5,-2025.03 105,-2035.03 112,-2035.03"/>
</g>
<!-- prog.teal:19 -->
<g id="node14" class="node">
<title>prog.teal:19</title>
<polygon fill="none" stroke="black" points="59,-1943 0,-1943 0,-1907 59,-1907 59,-1943"/>
<text text-anchor="middle" x="29.5" y="-1922.5" font-family="Monospace" font-size="10.00">19: err</text>
</g>
<!-- prog.teal:17&#45;&gt;prog.teal:19 -->
<g id="edge15" class="edge">
<title>prog.teal:17&#45;&gt;prog.teal:19</title>
<path fill="none" stroke="#c0392b" d="M91.36,-1988.64C80.31,-1977.45 65.78,-1962.74 53.58,-1950.39"/>
<polygon fill="#c0392b" stroke="#c0392b" points="55.85,-1947.71 46.34,-1943.05 50.87,-1952.62 55.85,-1947.71"/>
<text text-anchor="middle" x="77.5" y="-1963.8" font-family="Monospace" font-size="9.00" fill="#c0392b">F</text>
</g>
<!-- prog.teal:31 -->
<g id="node23" class="node">
<title>prog.teal:31</title>
<polygon fill="none" stroke="black" points="202,-1943 77,-1943 77,-1907 202,-1907 202,-1943"/>
<text text-anchor="middle" x="139.5" y="-1922.5" font-family="Monospace" font-size="10.00">31: handle_delete:</text>
</g>
<!-- prog.teal:17&#45;&gt;prog.teal:31 -->
<g id="edge14" class="edge">
<title>prog.teal:17&#45;&gt;prog.teal:31</title>
<path fill="none" stroke="#2a8f3c" d="M115.23,-1988.64C119.32,-1978.09 124.62,-1964.39 129.23,-1952.51"/>
<polygon fill="#2a8f3c" stroke="#2a8f3c" points="132.54,-1953.64 132.89,-1943.05 126.02,-1951.11 132.54,-1953.64"/>
<text text-anchor="middle" x="129.5" y="-1963.8" font-family="Monospace" font-size="9.00" fill="#2a8f3c">T</text>
</g>
<!-- prog.teal:22 -->
<g id="node16" class="node">
<title>prog.teal:22</title>
<polygon fill="none" stroke="black" points="469,-2507 296,-2507 296,-2471 469,-2471 469,-2507"/>
<text text-anchor="middle" x="382.5" y="-2486.5" font-family="Monospace" font-size="10.00">22: callsub business_logic</text>
</g>
<!-- prog.teal:21&#45;&gt;prog.teal:22 -->
<g id="edge47" class="edge">
<title>prog.teal:21&#45;&gt;prog.teal:22</title>
<path fill="none" stroke="black" d="M382.5,-2543.81C382.5,-2535.79 382.5,-2526.05 382.5,-2517.07"/>
<polygon fill="black" stroke="black" points="386,-2517.03 382.5,-2507.03 379,-2517.03 386,-2517.03"/>
</g>
<!-- prog.teal:38 -->
<g id="node28" class="node">
<title>prog.teal:38</title>
<polygon fill="none" stroke="black" points="448,-2434 317,-2434 317,-2398 448,-2398 448,-2434"/>
<text text-anchor="middle" x="382.5" y="-2413.5" font-family="Monospace" font-size="10.00">38: business_logic:</text>
</g>
<!-- prog.teal:22&#45;&gt;prog.teal:38 -->
<g id="edge16" class="edge">
<title>prog.teal:22&#45;&gt;prog.teal:38</title>
<path fill="none" stroke="black" d="M382.5,-2470.81C382.5,-2462.79 382.5,-2453.05 382.5,-2444.07"/>
<polygon fill="black" stroke="black" points="386,-2444.03 382.5,-2434.03 379,-2444.03 386,-2444.03"/>
</g>
<!-- prog.teal:23 -->
<g id="node17" class="node">
<title>prog.teal:23</title>
<polygon fill="none" stroke="black" points="418,-2098 347,-2098 347,-2062 418,-2062 418,-2098"/>
<text text-anchor="middle" x="382.5" y="-2077.5" font-family="Monospace" font-size="10.00">23: int 1</text>
</g>
<!-- prog.teal:24 -->
<g id="node18" class="node">
<title>prog.teal:24</title>
<polygon fill="none" stroke="black" points="421,-2025 344,-2025 344,-1989 421,-1989 421,-2025"/>
<text text-anchor="middle" x="382.5" y="-2004.5" font-family="Monospace" font-size="10.00">24: return</text>
</g>
<!-- prog.teal:23&#45;&gt;prog.teal:24 -->
<g id="edge17" class="edge">
<title>prog.teal:23&#45;&gt;prog.teal:24</title>
<path fill="none" stroke="black" d="M382.5,-2061.81C382.5,-2053.79 382.5,-2044.05 382.5,-2035.07"/>
<polygon fill="black" stroke="black" points="386,-2035.03 382.5,-2025.03 379,-2035.03 386,-2035.03"/>
</g>
<!-- prog.teal:27 -->
<g id="node20" class="node">
<title>prog.teal:27</title>
<polygon fill="none" stroke="black" points="347,-2152 168,-2152 168,-2116 347,-2116 347,-2152"/>
<text text-anchor="middle" x="257.5" y="-2131.5" font-family="Monospace" font-size="10.00">27: callsub require_creator</text>
</g>
<!-- prog.teal:26&#45;&gt;prog.teal:27 -->
<g id="edge48" class="edge">
<title>prog.teal:26&#45;&gt;prog.teal:27</title>
<path fill="none" stroke="black" d="M257.5,-2242.88C257.5,-2222.15 257.5,-2186.95 257.5,-2162.42"/>
<polygon fill="black" stroke="black" points="261,-2162.31 257.5,-2152.31 254,-2162.31 261,-2162.31"/>
</g>
<!-- prog.teal:43 -->
<g id="node32" class="node">
<title>prog.teal:43</title>
<polygon fill="none" stroke="black" points="267,-1797 130,-1797 130,-1761 267,-1761 267,-1797"/>
<text text-anchor="middle" x="198.5" y="-1776.5" font-family="Monospace" font-size="10.00">43: require_creator:</text>
</g>
<!-- prog.teal:27&#45;&gt;prog.teal:43 -->
<g id="edge18" class="edge">
<title>prog.teal:27&#45;&gt;prog.teal:43</title>
<path fill="none" stroke="black" d="M257.5,-2115.94C257.5,-2098.02 257.5,-2069.03 257.5,-2044 257.5,-2044 257.5,-2044 257.5,-1851 257.5,-1832.51 245.52,-1816.27 232.36,-1804"/>
<polygon fill="black" stroke="black" points="234.4,-1801.14 224.55,-1797.25 229.82,-1806.44 234.4,-1801.14"/>
</g>
<!-- prog.teal:28 -->
<g id="node21" class="node">
<title>prog.teal:28</title>
<polygon fill="none" stroke="black" points="162,-1350 91,-1350 91,-1314 162,-1314 162,-1350"/>
<text text-anchor="middle" x="126.5" y="-1329.5" font-family="Monospace" font-size="10.00">28: int 1</text>
</g>
<!-- prog.teal:29 -->
<g id="node22" class="node">
<title>prog.teal:29</title>
<polygon fill="none" stroke="black" points="165,-1277 88,-1277 88,-1241 165,-1241 165,-1277"/>
<text text-anchor="middle" x="126.5" y="-1256.5" font-family="Monospace" font-size="10.00">29: return</text>
</g>
<!-- prog.teal:28&#45;&gt;prog.teal:29 -->
<g id="edge19" class="edge">
<title>prog.teal:28&#45;&gt;prog.teal:29</title>
<path fill="none" stroke="black" d="M126.5,-1313.81C126.5,-1305.79 126.5,-1296.05 126.5,-1287.07"/>
<polygon fill="black" stroke="black" points="130,-1287.03 126.5,-1277.03 123,-1287.03 130,-1287.03"/>
</g>
<!-- prog.teal:32 -->
<g id="node24" class="node">
<title>prog.teal:32</title>
<polygon fill="none" stroke="black" points="229,-1870 50,-1870 50,-1834 229,-1834 229,-1870"/>
<text text-anchor="middle" x="139.5" y="-1849.5" font-family="Monospace" font-size="10.00">32: callsub require_creator</text>
</g>
<!-- prog.teal:31&#45;&gt;prog.teal:32 -->
<g id="edge49" class="edge">
<title>prog.teal:31&#45;&gt;prog.teal:32</title>
<path fill="none" stroke="black" d="M139.5,-1906.81C139.5,-1898.79 139.5,-1889.05 139.5,-1880.07"/>
<polygon fill="black" stroke="black" points="143,-1880.03 139.5,-1870.03 136,-1880.03 143,-1880.03"/>
</g>
<!-- prog.teal:32&#45;&gt;prog.teal:43 -->
<g id="edge20" class="edge">
<title>prog.teal:32&#45;&gt;prog.teal:43</title>
<path fill="none" stroke="black" d="M153.78,-1833.81C161.03,-1825.09 169.96,-1814.34 177.94,-1804.75"/>
<polygon fill="black" stroke="black" points="180.65,-1806.96 184.35,-1797.03 175.27,-1802.48 180.65,-1806.96"/>
</g>
<!-- prog.teal:34 -->
<g id="node25" class="node">
<title>prog.teal:34</title>
<polygon fill="none" stroke="black" points="365,-1350 180,-1350 180,-1314 365,-1314 365,-1350"/>
<text text-anchor="middle" x="272.5" y="-1329.5" font-family="Monospace" font-size="10.00">34: callsub drain_to_creator</text>
</g>
<!-- prog.teal:50 -->
<g id="node38" class="node">
<title>prog.teal:50</title>
<polygon fill="none" stroke="black" points="344,-1277 201,-1277 201,-1241 344,-1241 344,-1277"/>
<text text-anchor="middle" x="272.5" y="-1256.5" font-family="Monospace" font-size="10.00">50: drain_to_creator:</text>
</g>
<!-- prog.teal:34&#45;&gt;prog.teal:50 -->
<g id="edge21" class="edge">
<title>prog.teal:34&#45;&gt;prog.teal:50</title>
<path fill="none" stroke="black" d="M272.5,-1313.81C272.5,-1305.79 272.5,-1296.05 272.5,-1287.07"/>
<polygon fill="black" stroke="black" points="276,-1287.03 272.5,-1277.03 269,-1287.03 276,-1287.03"/>
</g>
<!-- prog.teal:35 -->
<g id="node26" class="node">
<title>prog.teal:35</title>
<polygon fill="none" stroke="black" points="308,-109 237,-109 237,-73 308,-73 308,-109"/>
<text text-anchor="middle" x="272.5" y="-88.5" font-family="Monospace" font-size="10.00">35: int 1</text>
</g>
<!-- prog.teal:36 -->
<g id="node27" class="node">
<title>prog.teal:36</title>
<polygon fill="none" stroke="black" points="311,-36 234,-36 234,0 311,0 311,-36"/>
<text text-anchor="middle" x="272.5" y="-15.5" font-family="Monospace" font-size="10.00">36: return</text>
</g>
<!-- prog.teal:35&#45;&gt;prog.teal:36 -->
<g id="edge22" class="edge">
<title>prog.teal:35&#45;&gt;prog.teal:36</title>
<path fill="none" stroke="black" d="M272.5,-72.81C272.5,-64.79 272.5,-55.05 272.5,-46.07"/>
<polygon fill="black" stroke="black" points="276,-46.03 272.5,-36.03 269,-46.03 276,-46.03"/>
</g>
<!-- prog.teal:39 -->
<g id="node29" class="node">
<title>prog.teal:39</title>
<polygon fill="none" stroke="black" points="421,-2361 344,-2361 344,-2325 421,-2325 421,-2361"/>
<text text-anchor="middle" x="382.5" y="-2340.5" font-family="Monospace" font-size="10.00">39: int 42</text>
</g>
<!-- prog.teal:38&#45;&gt;prog.teal:39 -->
<g id="edge50" class="edge">
<title>prog.teal:38&#45;&gt;prog.teal:39</title>
<path fill="none" stroke="black" d="M382.5,-2397.81C382.5,-2389.79 382.5,-2380.05 382.5,-2371.07"/>
<polygon fill="black" stroke="black" points="386,-2371.03 382.5,-2361.03 379,-2371.03 386,-2371.03"/>
</g>
<!-- prog.teal:40 -->
<g id="node30" class="node">
<title>prog.teal:40</title>
<polygon fill="none" stroke="black" points="412,-2279 353,-2279 353,-2243 412,-2243 412,-2279"/>
<text text-anchor="middle" x="382.5" y="-2258.5" font-family="Monospace" font-size="10.00">40: pop</text>
</g>
<!-- prog.teal:39&#45;&gt;prog.teal:40 -->
<g id="edge23" class="edge">
<title>prog.teal:39&#45;&gt;prog.teal:40</title>
<path fill="none" stroke="black" d="M382.5,-2324.64C382.5,-2314.3 382.5,-2300.94 382.5,-2289.22"/>
<polygon fill="black" stroke="black" points="386,-2289.05 382.5,-2279.05 379,-2289.05 386,-2289.05"/>
</g>
<!-- prog.teal:41 -->
<g id="node31" class="node">
<title>prog.teal:41</title>
<polygon fill="none" stroke="black" points="421,-2206 344,-2206 344,-2170 421,-2170 421,-2206"/>
<text text-anchor="middle" x="382.5" y="-2185.5" font-family="Monospace" font-size="10.00">41: retsub</text>
</g>
<!-- prog.teal:40&#45;&gt;prog.teal:41 -->
<g id="edge24" class="edge">
<title>prog.teal:40&#45;&gt;prog.teal:41</title>
<path fill="none" stroke="black" d="M382.5,-2242.81C382.5,-2234.79 382.5,-2225.05 382.5,-2216.07"/>
<polygon fill="black" stroke="black" points="386,-2216.03 382.5,-2206.03 379,-2216.03 386,-2216.03"/>
</g>
<!-- prog.teal:41&#45;&gt;prog.teal:23 -->
<g id="edge25" class="edge">
<title>prog.teal:41&#45;&gt;prog.teal:23</title>
<path fill="none" stroke="black" d="M382.5,-2169.97C382.5,-2153.38 382.5,-2127.88 382.5,-2108.43"/>
<polygon fill="black" stroke="black" points="386,-2108.34 382.5,-2098.34 379,-2108.34 386,-2108.34"/>
</g>
<!-- prog.teal:44 -->
<g id="node33" class="node">
<title>prog.teal:44</title>
<polygon fill="none" stroke="black" points="249,-1724 148,-1724 148,-1688 249,-1688 249,-1724"/>
<text text-anchor="middle" x="198.5" y="-1703.5" font-family="Monospace" font-size="10.00">44: txn Sender</text>
</g>
<!-- prog.teal:43&#45;&gt;prog.teal:44 -->
<g id="edge51" class="edge">
<title>prog.teal:43&#45;&gt;prog.teal:44</title>
<path fill="none" stroke="black" d="M198.5,-1760.81C198.5,-1752.79 198.5,-1743.05 198.5,-1734.07"/>
<polygon fill="black" stroke="black" points="202,-1734.03 198.5,-1724.03 195,-1734.03 202,-1734.03"/>
</g>
<!-- prog.teal:45 -->
<g id="node34" class="node">
<title>prog.teal:45</title>
<polygon fill="none" stroke="black" points="282,-1651 115,-1651 115,-1615 282,-1615 282,-1651"/>
<text text-anchor="middle" x="198.5" y="-1630.5" font-family="Monospace" font-size="10.00">45: global CreatorAddress</text>
</g>
<!-- prog.teal:44&#45;&gt;prog.teal:45 -->
<g id="edge26" class="edge">
<title>prog.teal:44&#45;&gt;prog.teal:45</title>
<path fill="none" stroke="black" d="M198.5,-1687.81C198.5,-1679.79 198.5,-1670.05 198.5,-1661.07"/>
<polygon fill="black" stroke="black" points="202,-1661.03 198.5,-1651.03 195,-1661.03 202,-1661.03"/>
</g>
<!-- prog.teal:46 -->
<g id="node35" class="node">
<title>prog.teal:46</title>
<polygon fill="none" stroke="black" points="225.5,-1578 171.5,-1578 171.5,-1542 225.5,-1542 225.5,-1578"/>
<text text-anchor="middle" x="198.5" y="-1557.5" font-family="Monospace" font-size="10.00">46: ==</text>
</g>
<!-- prog.teal:45&#45;&gt;prog.teal:46 -->
<g id="edge27" class="edge">
<title>prog.teal:45&#45;&gt;prog.teal:46</title>
<path fill="none" stroke="black" d="M198.5,-1614.81C198.5,-1606.79 198.5,-1597.05 198.5,-1588.07"/>
<polygon fill="black" stroke="black" points="202,-1588.03 198.5,-1578.03 195,-1588.03 202,-1588.03"/>
</g>
<!-- prog.teal:47 -->
<g id="node36" class="node">
<title>prog.teal:47</title>
<polygon fill="none" stroke="black" points="237,-1505 160,-1505 160,-1469 237,-1469 237,-1505"/>
<text text-anchor="middle" x="198.5" y="-1484.5" font-family="Monospace" font-size="10.00">47: assert</text>
</g>
<!-- prog.teal:46&#45;&gt;prog.teal:47 -->
<g id="edge28" class="edge">
<title>prog.teal:46&#45;&gt;prog.teal:47</title>
<path fill="none" stroke="black" d="M198.5,-1541.81C198.5,-1533.79 198.5,-1524.05 198.5,-1515.07"/>
<polygon fill="black" stroke="black" points="202,-1515.03 198.5,-1505.03 195,-1515.03 202,-1515.03"/>
</g>
<!-- prog.teal:48 -->
<g id="node37" class="node">
<title>prog.teal:48</title>
<polygon fill="none" stroke="black" points="237,-1423 160,-1423 160,-1387 237,-1387 237,-1423"/>
<text text-anchor="middle" x="198.5" y="-1402.5" font-family="Monospace" font-size="10.00">48: retsub</text>
</g>
<!-- prog.teal:47&#45;&gt;prog.teal:48 -->
<g id="edge29" class="edge">
<title>prog.teal:47&#45;&gt;prog.teal:48</title>
<path fill="none" stroke="#2a8f3c" d="M198.5,-1468.64C198.5,-1458.3 198.5,-1444.94 198.5,-1433.22"/>
<polygon fill="#2a8f3c" stroke="#2a8f3c" points="202,-1433.05 198.5,-1423.05 195,-1433.05 202,-1433.05"/>
<text text-anchor="middle" x="201.5" y="-1443.8" font-family="Monospace" font-size="9.00" fill="#2a8f3c">T</text>
</g>
<!-- prog.teal:48&#45;&gt;prog.teal:28 -->
<g id="edge30" class="edge">
<title>prog.teal:48&#45;&gt;prog.teal:28</title>
<path fill="none" stroke="black" d="M181.07,-1386.81C172.05,-1377.92 160.89,-1366.91 151.01,-1357.17"/>
<polygon fill="black" stroke="black" points="153.35,-1354.56 143.77,-1350.03 148.43,-1359.54 153.35,-1354.56"/>
</g>
<!-- prog.teal:48&#45;&gt;prog.teal:34 -->
<g id="edge31" class="edge">
<title>prog.teal:48&#45;&gt;prog.teal:34</title>
<path fill="none" stroke="black" d="M216.41,-1386.81C225.68,-1377.92 237.16,-1366.91 247.31,-1357.17"/>
<polygon fill="black" stroke="black" points="249.96,-1359.48 254.75,-1350.03 245.11,-1354.43 249.96,-1359.48"/>
</g>
<!-- prog.teal:51 -->
<g id="node39" class="node">
<title>prog.teal:51</title>
<polygon fill="none" stroke="black" points="323,-1204 222,-1204 222,-1168 323,-1168 323,-1204"/>
<text text-anchor="middle" x="272.5" y="-1183.5" font-family="Monospace" font-size="10.00">51: itxn_begin</text>
</g>
<!-- prog.teal:50&#45;&gt;prog.teal:51 -->
<g id="edge52" class="edge">
<title>prog.teal:50&#45;&gt;prog.teal:51</title>
<path fill="none" stroke="black" d="M272.5,-1240.81C272.5,-1232.79 272.5,-1223.05 272.5,-1214.07"/>
<polygon fill="black" stroke="black" points="276,-1214.03 272.5,-1204.03 269,-1214.03 276,-1214.03"/>
</g>
<!-- prog.teal:52 -->
<g id="node40" class="node">
<title>prog.teal:52</title>
<polygon fill="none" stroke="black" points="308,-1131 237,-1131 237,-1095 308,-1095 308,-1131"/>
<text text-anchor="middle" x="272.5" y="-1110.5" font-family="Monospace" font-size="10.00">52: int 1</text>
</g>
<!-- prog.teal:51&#45;&gt;prog.teal:52 -->
<g id="edge32" class="edge">
<title>prog.teal:51&#45;&gt;prog.teal:52</title>
<path fill="none" stroke="black" d="M272.5,-1167.81C272.5,-1159.79 272.5,-1150.05 272.5,-1141.07"/>
<polygon fill="black" stroke="black" points="276,-1141.03 272.5,-1131.03 269,-1141.03 276,-1141.03"/>
</g>
<!-- prog.teal:53 -->
<g id="node41" class="node">
<title>prog.teal:53</title>
<polygon fill="none" stroke="black" points="350,-1058 195,-1058 195,-1022 350,-1022 350,-1058"/>
<text text-anchor="middle" x="272.5" y="-1037.5" font-family="Monospace" font-size="10.00">53: itxn_field TypeEnum</text>
</g>
<!-- prog.teal:52&#45;&gt;prog.teal:53 -->
<g id="edge33" class="edge">
<title>prog.teal:52&#45;&gt;prog.teal:53</title>
<path fill="none" stroke="black" d="M272.5,-1094.81C272.5,-1086.79 272.5,-1077.05 272.5,-1068.07"/>
<polygon fill="black" stroke="black" points="276,-1068.03 272.5,-1058.03 269,-1068.03 276,-1068.03"/>
</g>
<!-- prog.teal:54 -->
<g id="node42" class="node">
<title>prog.teal:54</title>
<polygon fill="none" stroke="black" points="356,-985 189,-985 189,-949 356,-949 356,-985"/>
<text text-anchor="middle" x="272.5" y="-964.5" font-family="Monospace" font-size="10.00">54: global CreatorAddress</text>
</g>
<!-- prog.teal:53&#45;&gt;prog.teal:54 -->
<g id="edge34" class="edge">
<title>prog.teal:53&#45;&gt;prog.teal:54</title>
<path fill="none" stroke="black" d="M272.5,-1021.81C272.5,-1013.79 272.5,-1004.05 272.5,-995.07"/>
<polygon fill="black" stroke="black" points="276,-995.03 272.5,-985.03 269,-995.03 276,-995.03"/>
</g>
<!-- prog.teal:55 -->
<g id="node43" class="node">
<title>prog.teal:55</title>
<polygon fill="none" stroke="black" points="350,-912 195,-912 195,-876 350,-876 350,-912"/>
<text text-anchor="middle" x="272.5" y="-891.5" font-family="Monospace" font-size="10.00">55: itxn_field Receiver</text>
</g>
<!-- prog.teal:54&#45;&gt;prog.teal:55 -->
<g id="edge35" class="edge">
<title>prog.teal:54&#45;&gt;prog.teal:55</title>
<path fill="none" stroke="black" d="M272.5,-948.81C272.5,-940.79 272.5,-931.05 272.5,-922.07"/>
<polygon fill="black" stroke="black" points="276,-922.03 272.5,-912.03 269,-922.03 276,-922.03"/>
</g>
<!-- prog.teal:56 -->
<g id="node44" class="node">
<title>prog.teal:56</title>
<polygon fill="none" stroke="black" points="389,-839 156,-839 156,-803 389,-803 389,-839"/>
<text text-anchor="middle" x="272.5" y="-818.5" font-family="Monospace" font-size="10.00">56: global CurrentApplicationAddress</text>
</g>
<!-- prog.teal:55&#45;&gt;prog.teal:56 -->
<g id="edge36" class="edge">
<title>prog.teal:55&#45;&gt;prog.teal:56</title>
<path fill="none" stroke="black" d="M272.5,-875.81C272.5,-867.79 272.5,-858.05 272.5,-849.07"/>
<polygon fill="black" stroke="black" points="276,-849.03 272.5,-839.03 269,-849.03 276,-849.03"/>
</g>
<!-- prog.teal:57 -->
<g id="node45" class="node">
<title>prog.teal:57</title>
<polygon fill="none" stroke="black" points="314,-766 231,-766 231,-730 314,-730 314,-766"/>
<text text-anchor="middle" x="272.5" y="-745.5" font-family="Monospace" font-size="10.00">57: balance</text>
</g>
<!-- prog.teal:56&#45;&gt;prog.teal:57 -->
<g id="edge37" class="edge">
<title>prog.teal:56&#45;&gt;prog.teal:57</title>
<path fill="none" stroke="black" d="M272.5,-802.81C272.5,-794.79 272.5,-785.05 272.5,-776.07"/>
<polygon fill="black" stroke="black" points="276,-776.03 272.5,-766.03 269,-776.03 276,-776.03"/>
</g>
<!-- prog.teal:58 -->
<g id="node46" class="node">
<title>prog.teal:58</title>
<polygon fill="none" stroke="black" points="389,-693 156,-693 156,-657 389,-657 389,-693"/>
<text text-anchor="middle" x="272.5" y="-672.5" font-family="Monospace" font-size="10.00">58: global CurrentApplicationAddress</text>
</g>
<!-- prog.teal:57&#45;&gt;prog.teal:58 -->
<g id="edge38" class="edge">
<title>prog.teal:57&#45;&gt;prog.teal:58</title>
<path fill="none" stroke="black" d="M272.5,-729.81C272.5,-721.79 272.5,-712.05 272.5,-703.07"/>
<polygon fill="black" stroke="black" points="276,-703.03 272.5,-693.03 269,-703.03 276,-703.03"/>
</g>
<!-- prog.teal:59 -->
<g id="node47" class="node">
<title>prog.teal:59</title>
<polygon fill="none" stroke="black" points="326,-620 219,-620 219,-584 326,-584 326,-620"/>
<text text-anchor="middle" x="272.5" y="-599.5" font-family="Monospace" font-size="10.00">59: min_balance</text>
</g>
<!-- prog.teal:58&#45;&gt;prog.teal:59 -->
<g id="edge39" class="edge">
<title>prog.teal:58&#45;&gt;prog.teal:59</title>
<path fill="none" stroke="black" d="M272.5,-656.81C272.5,-648.79 272.5,-639.05 272.5,-630.07"/>
<polygon fill="black" stroke="black" points="276,-630.03 272.5,-620.03 269,-630.03 276,-630.03"/>
</g>
<!-- prog.teal:60 -->
<g id="node48" class="node">
<title>prog.teal:60</title>
<polygon fill="none" stroke="black" points="299.5,-547 245.5,-547 245.5,-511 299.5,-511 299.5,-547"/>
<text text-anchor="middle" x="272.5" y="-526.5" font-family="Monospace" font-size="10.00">60: &#45;</text>
</g>
<!-- prog.teal:59&#45;&gt;prog.teal:60 -->
<g id="edge40" class="edge">
<title>prog.teal:59&#45;&gt;prog.teal:60</title>
<path fill="none" stroke="black" d="M272.5,-583.81C272.5,-575.79 272.5,-566.05 272.5,-557.07"/>
<polygon fill="black" stroke="black" points="276,-557.03 272.5,-547.03 269,-557.03 276,-557.03"/>
</g>
<!-- prog.teal:61 -->
<g id="node49" class="node">
<title>prog.teal:61</title>
<polygon fill="none" stroke="black" points="344,-474 201,-474 201,-438 344,-438 344,-474"/>
<text text-anchor="middle" x="272.5" y="-453.5" font-family="Monospace" font-size="10.00">61: itxn_field Amount</text>
</g>
<!-- prog.teal:60&#45;&gt;prog.teal:61 -->
<g id="edge41" class="edge">
<title>prog.teal:60&#45;&gt;prog.teal:61</title>
<path fill="none" stroke="black" d="M272.5,-510.81C272.5,-502.79 272.5,-493.05 272.5,-484.07"/>
<polygon fill="black" stroke="black" points="276,-484.03 272.5,-474.03 269,-484.03 276,-484.03"/>
</g>
<!-- prog.teal:62 -->
<g id="node50" class="node">
<title>prog.teal:62</title>
<polygon fill="none" stroke="black" points="308,-401 237,-401 237,-365 308,-365 308,-401"/>
<text text-anchor="middle" x="272.5" y="-380.5" font-family="Monospace" font-size="10.00">62: int 0</text>
</g>
<!-- prog.teal:61&#45;&gt;prog.teal:62 -->
<g id="edge42" class="edge">
<title>prog.teal:61&#45;&gt;prog.teal:62</title>
<path fill="none" stroke="black" d="M272.5,-437.81C272.5,-429.79 272.5,-420.05 272.5,-411.07"/>
<polygon fill="black" stroke="black" points="276,-411.03 272.5,-401.03 269,-411.03 276,-411.03"/>
</g>
<!-- prog.teal:63 -->
<g id="node51" class="node">
<title>prog.teal:63</title>
<polygon fill="none" stroke="black" points="335,-328 210,-328 210,-292 335,-292 335,-328"/>
<text text-anchor="middle" x="272.5" y="-307.5" font-family="Monospace" font-size="10.00">63: itxn_field Fee</text>
</g>
<!-- prog.teal:62&#45;&gt;prog.teal:63 -->
<g id="edge43" class="edge">
<title>prog.teal:62&#45;&gt;prog.teal:63</title>
<path fill="none" stroke="black" d="M272.5,-364.81C272.5,-356.79 272.5,-347.05 272.5,-338.07"/>
<polygon fill="black" stroke="black" points="276,-338.03 272.5,-328.03 269,-338.03 276,-338.03"/>
</g>
<!-- prog.teal:64 -->
<g id="node52" class="node">
<title>prog.teal:64</title>
<polygon fill="none" stroke="black" points="326,-255 219,-255 219,-219 326,-219 326,-255"/>
<text text-anchor="middle" x="272.5" y="-234.5" font-family="Monospace" font-size="10.00">64: itxn_submit</text>
</g>
<!-- prog.teal:63&#45;&gt;prog.teal:64 -->
<g id="edge44" class="edge">
<title>prog.teal:63&#45;&gt;prog.teal:64</title>
<path fill="none" stroke="black" d="M272.5,-291.81C272.5,-283.79 272.5,-274.05 272.5,-265.07"/>
<polygon fill="black" stroke="black" points="276,-265.03 272.5,-255.03 269,-265.03 276,-265.03"/>
</g>
<!-- prog.teal:65 -->
<g id="node53" class="node">
<title>prog.teal:65</title>
<polygon fill="none" stroke="black" points="311,-182 234,-182 234,-146 311,-146 311,-182"/>
<text text-anchor="middle" x="272.5" y="-161.5" font-family="Monospace" font-size="10.00">65: retsub</text>
</g>
<!-- prog.teal:64&#45;&gt;prog.teal:65 -->
<g id="edge45" class="edge">
<title>prog.teal:64&#45;&gt;prog.teal:65</title>
<path fill="none" stroke="black" d="M272.5,-218.81C272.5,-210.79 272.5,-201.05 272.5,-192.07"/>
<polygon fill="black" stroke="black" points="276,-192.03 272.5,-182.03 269,-192.03 276,-192.03"/>
</g>
<!-- prog.teal:65&#45;&gt;prog.teal:35 -->
<g id="edge46" class="edge">
<title>prog.teal:65&#45;&gt;prog.teal:35</title>
<path fill="none" stroke="black" d="M272.5,-145.81C272.5,-137.79 272.5,-128.05 272.5,-119.07"/>
<polygon fill="black" stroke="black" points="276,-119.03 272.5,-109.03 269,-119.03 276,-119.03"/>
</g>
</g>
</svg>
